# This file uses centimeters as units for non-parametric coordinates.

mtllib Garbage Can.mtl
g default
v 0.951057 0.071756 -0.309017
v 0.809018 0.071756 -0.587786
v 0.587786 0.071756 -0.809017
v 0.309017 0.071756 -0.951057
v 0.000000 0.071756 -1.000000
v -0.309017 0.071756 -0.951057
v -0.587785 0.071756 -0.809017
v -0.809017 0.071756 -0.587785
v -0.951057 0.071756 -0.309017
v -1.000000 0.071756 0.000000
v -0.951057 0.071756 0.309017
v -0.809017 0.071756 0.587785
v -0.587785 0.071756 0.809017
v -0.309017 0.071756 0.951057
v 0.000000 0.071756 1.000000
v 0.309017 0.071756 0.951057
v 0.587785 0.071756 0.809017
v 0.809017 0.071756 0.587785
v 0.951057 0.071756 0.309017
v 1.000000 0.071756 0.000000
v 0.951057 2.608582 -0.309017
v 0.809018 2.608582 -0.587786
v 0.587786 2.608582 -0.809017
v 0.309017 2.608582 -0.951057
v 0.000000 2.608582 -1.000000
v -0.309017 2.608582 -0.951057
v -0.587785 2.608582 -0.809017
v -0.809017 2.608582 -0.587785
v -0.951057 2.608582 -0.309017
v -1.000000 2.608582 0.000000
v -0.951057 2.608582 0.309017
v -0.809017 2.608582 0.587785
v -0.587785 2.608582 0.809017
v -0.309017 2.608582 0.951057
v 0.000000 2.608582 1.000000
v 0.309017 2.608582 0.951057
v 0.587785 2.608582 0.809017
v 0.809017 2.608582 0.587785
v 0.951057 2.608582 0.309017
v 1.000000 2.608582 0.000000
v 1.085466 2.605763 -0.352689
v 0.923353 2.605763 -0.670855
v 0.923353 2.818928 -0.670855
v 1.085466 2.818928 -0.352689
v 0.670855 2.605763 -0.923353
v 0.670855 2.818928 -0.923353
v 0.352689 2.605763 -1.085466
v 0.352689 2.818928 -1.085466
v 0.000000 2.605763 -1.141326
v 0.000000 2.818928 -1.141326
v -0.352689 2.605763 -1.085466
v -0.352689 2.818928 -1.085466
v -0.670855 2.605763 -0.923352
v -0.670855 2.818928 -0.923352
v -0.923352 2.605763 -0.670855
v -0.923352 2.818928 -0.670855
v -1.085466 2.605763 -0.352689
v -1.085466 2.818928 -0.352689
v -1.141326 2.605763 0.000000
v -1.141326 2.818928 0.000000
v -1.085466 2.605763 0.352689
v -1.085466 2.818928 0.352689
v -0.923352 2.605763 0.670855
v -0.923352 2.818928 0.670855
v -0.670855 2.605763 0.923352
v -0.670855 2.818928 0.923352
v -0.352689 2.605763 1.085466
v -0.352689 2.818928 1.085466
v 0.000000 2.605763 1.141326
v 0.000000 2.818928 1.141326
v 0.352689 2.605763 1.085466
v 0.352689 2.818928 1.085466
v 0.670855 2.605763 0.923352
v 0.670855 2.818928 0.923352
v 0.923352 2.605763 0.670855
v 0.923352 2.818928 0.670855
v 1.085465 2.605763 0.352689
v 1.085465 2.818928 0.352689
v 1.141326 2.605763 0.000000
v 1.141326 2.818928 0.000000
v 0.000000 3.028202 0.000000
vt 0.604248 0.730808
vt 0.616748 0.730808
vt 0.787944 0.449845
vt 0.835929 0.449845
vt 0.629248 0.730808
vt 0.835929 0.487079
vt 0.641748 0.730808
vt 0.787944 0.487079
vt 0.654248 0.730808
vt 0.883915 0.449845
vt 0.666748 0.730808
vt 0.883915 0.487079
vt 0.679248 0.730808
vt 0.691748 0.730808
vt 0.931900 0.487079
vt 0.704248 0.730808
vt 0.020178 0.449845
vt 0.716748 0.730808
vt 0.020178 0.487079
vt 0.729248 0.730808
vt 0.068164 0.449845
vt 0.741748 0.730808
vt 0.068164 0.487079
vt 0.754248 0.730808
vt 0.116149 0.449845
vt 0.766748 0.730808
vt 0.116149 0.487079
vt 0.779248 0.730808
vt 0.164134 0.449845
vt 0.791748 0.730808
vt 0.164134 0.487079
vt 0.804248 0.730808
vt 0.212120 0.449845
vt 0.816748 0.730808
vt 0.212120 0.487079
vt 0.829248 0.730808
vt 0.260105 0.449845
vt 0.841748 0.730808
vt 0.260105 0.487079
vt 0.854248 0.730808
vt 0.308090 0.449845
vt 0.365414 0.787524
vt 0.343220 0.831081
vt 0.216811 0.732990
vt 0.308652 0.865649
vt 0.265095 0.887843
vt 0.216811 0.895490
vt 0.168527 0.887843
vt 0.124970 0.865649
vt 0.090402 0.831081
vt 0.068208 0.787524
vt 0.060561 0.739240
vt 0.068208 0.690956
vt 0.090402 0.647399
vt 0.124970 0.612831
vt 0.168527 0.590637
vt 0.216811 0.582990
vt 0.265095 0.590637
vt 0.308653 0.612831
vt 0.343220 0.647398
vt 0.365414 0.690956
vt 0.373061 0.739240
vt 0.308090 0.487079
vt 0.356076 0.449845
vt 0.616748 0.730808
vt 0.604248 0.730808
vt 0.356076 0.487079
vt 0.629248 0.730808
vt 0.404061 0.449845
vt 0.641748 0.730808
vt 0.404061 0.487079
vt 0.654248 0.730808
vt 0.452047 0.449845
vt 0.666748 0.730808
vt 0.452047 0.487079
vt 0.679248 0.730808
vt 0.500032 0.449845
vt 0.691748 0.730808
vt 0.500032 0.487079
vt 0.704248 0.730808
vt 0.548017 0.449845
vt 0.716748 0.730808
vt 0.548017 0.487079
vt 0.729248 0.730808
vt 0.596003 0.449845
vt 0.741748 0.730808
vt 0.596003 0.487079
vt 0.754248 0.730808
vt 0.643988 0.449845
vt 0.766748 0.730808
vt 0.643988 0.487079
vt 0.779248 0.730808
vt 0.691973 0.449845
vt 0.791748 0.730808
vt 0.691973 0.487079
vt 0.804248 0.730808
vt 0.739959 0.449845
vt 0.816748 0.730808
vt 0.739959 0.487079
vt 0.829248 0.730808
vt 0.787944 0.007226
vt 0.841748 0.730808
vt 0.835929 0.007226
vt 0.854248 0.730808
vt 0.835929 0.450338
vt 0.787944 0.450338
vt 0.883915 0.007226
vt 0.883915 0.450338
vt 0.931900 0.007226
vt 0.931900 0.450338
vt 0.020178 0.007226
vt 0.020178 0.450338
vt 0.068164 0.007226
vt 0.068164 0.450338
vt 0.116149 0.007226
vt 0.116149 0.450338
vt 0.164134 0.007226
vt 0.164134 0.450338
vt 0.212120 0.007226
vt 0.212120 0.450338
vt 0.260105 0.007226
vt 0.260105 0.450338
vt 0.308090 0.007226
vt 0.308090 0.450338
vt 0.356076 0.007226
vt 0.356076 0.450338
vt 0.404061 0.007226
vt 0.404061 0.450338
vt 0.452047 0.007226
vt 0.452047 0.450338
vt 0.500032 0.007226
vt 0.500032 0.450338
vt 0.548017 0.007226
vt 0.548017 0.450338
vt 0.596002 0.007226
vt 0.596002 0.450338
vt 0.643988 0.007226
vt 0.643988 0.450338
vt 0.691973 0.007226
vt 0.691973 0.450338
vt 0.739959 0.007226
vt 0.739959 0.450338
vt 0.931900 0.449845
vt 0.979885 0.449845
vt 0.979885 0.487079
vt 0.979885 0.007226
vt 0.979885 0.450338
vn 0.951057 0.000000 -0.309016
vn 0.809017 0.000000 -0.587785
vn 0.809017 0.000000 -0.587785
vn 0.951057 0.000000 -0.309016
vn 0.809017 0.000000 -0.587785
vn 0.587785 0.000000 -0.809017
vn 0.587785 0.000000 -0.809017
vn 0.809017 0.000000 -0.587785
vn 0.587785 0.000000 -0.809017
vn 0.309017 0.000000 -0.951057
vn 0.309017 0.000000 -0.951057
vn 0.587785 0.000000 -0.809017
vn 0.309017 0.000000 -0.951057
vn -0.000000 0.000000 -1.000000
vn -0.000000 0.000000 -1.000000
vn 0.309017 0.000000 -0.951057
vn -0.000000 0.000000 -1.000000
vn -0.309017 0.000000 -0.951057
vn -0.309017 0.000000 -0.951057
vn -0.000000 0.000000 -1.000000
vn -0.309017 0.000000 -0.951057
vn -0.587785 0.000000 -0.809017
vn -0.587785 0.000000 -0.809017
vn -0.309017 0.000000 -0.951057
vn -0.587785 0.000000 -0.809017
vn -0.809017 -0.000001 -0.587785
vn -0.809017 -0.000001 -0.587785
vn -0.587785 0.000000 -0.809017
vn -0.809017 -0.000001 -0.587785
vn -0.951057 0.000000 -0.309017
vn -0.951057 0.000000 -0.309017
vn -0.809017 -0.000001 -0.587785
vn -0.951057 0.000000 -0.309017
vn -1.000000 0.000000 0.000000
vn -1.000000 0.000000 0.000000
vn -0.951057 0.000000 -0.309017
vn -1.000000 0.000000 0.000000
vn -0.951057 0.000000 0.309017
vn -0.951057 0.000000 0.309017
vn -1.000000 0.000000 0.000000
vn -0.951057 0.000000 0.309017
vn -0.809017 0.000000 0.587785
vn -0.809017 0.000000 0.587785
vn -0.951057 0.000000 0.309017
vn -0.809017 0.000000 0.587785
vn -0.587785 0.000000 0.809017
vn -0.587785 0.000000 0.809017
vn -0.809017 0.000000 0.587785
vn -0.587785 0.000000 0.809017
vn -0.309017 0.000000 0.951057
vn -0.309017 0.000000 0.951057
vn -0.587785 0.000000 0.809017
vn -0.309017 0.000000 0.951057
vn 0.000000 0.000000 1.000000
vn 0.000000 0.000000 1.000000
vn -0.309017 0.000000 0.951057
vn 0.000000 0.000000 1.000000
vn 0.309017 0.000000 0.951057
vn 0.309017 0.000000 0.951057
vn 0.000000 0.000000 1.000000
vn 0.309017 0.000000 0.951057
vn 0.587785 0.000000 0.809017
vn 0.587785 0.000000 0.809017
vn 0.309017 0.000000 0.951057
vn 0.587785 0.000000 0.809017
vn 0.809017 0.000000 0.587785
vn 0.809017 0.000000 0.587785
vn 0.587785 0.000000 0.809017
vn 0.809017 0.000000 0.587785
vn 0.951057 0.000000 0.309017
vn 0.951057 0.000000 0.309017
vn 0.809017 0.000000 0.587785
vn 0.951057 0.000000 0.309017
vn 1.000000 0.000000 0.000001
vn 1.000000 0.000000 0.000001
vn 0.951057 0.000000 0.309017
vn 1.000000 0.000000 0.000001
vn 0.951057 0.000000 -0.309016
vn 0.951057 0.000000 -0.309016
vn 1.000000 0.000000 0.000001
vn 0.000000 1.000000 0.000000
vn 0.000000 1.000000 0.000000
vn 0.000000 1.000000 0.000000
vn 0.000000 1.000000 0.000000
vn 0.000000 1.000000 0.000000
vn 0.000000 1.000000 0.000000
vn 0.000000 1.000000 0.000000
vn 0.000000 1.000000 0.000000
vn 0.000000 1.000000 0.000000
vn 0.000000 1.000000 0.000000
vn 0.000000 1.000000 0.000000
vn 0.000000 1.000000 0.000000
vn 0.000000 1.000000 0.000000
vn 0.000000 1.000000 0.000000
vn 0.000000 1.000000 0.000000
vn 0.000000 1.000000 0.000000
vn 0.000000 1.000000 0.000000
vn 0.000000 1.000000 0.000000
vn 0.000000 1.000000 0.000000
vn 0.000000 1.000000 0.000000
vn 0.000000 1.000000 0.000000
vn 0.000000 1.000000 0.000000
vn 0.000000 1.000000 0.000000
vn 0.000000 1.000000 0.000000
vn 0.000000 1.000000 0.000000
vn 0.000000 1.000000 0.000000
vn 0.000000 1.000000 0.000000
vn 0.000000 1.000000 0.000000
vn 0.000000 1.000000 0.000000
vn 0.000000 1.000000 0.000000
vn 0.000000 1.000000 0.000000
vn 0.000000 1.000000 0.000000
vn 0.000000 1.000000 0.000000
vn 0.000000 1.000000 0.000000
vn 0.000000 1.000000 0.000000
vn 0.000000 1.000000 0.000000
vn 0.000000 1.000000 0.000000
vn 0.000000 1.000000 0.000000
vn 0.000000 1.000000 0.000000
vn 0.000000 1.000000 0.000000
vn 0.000000 1.000000 0.000000
vn 0.000000 1.000000 0.000000
vn 0.000000 1.000000 0.000000
vn 0.000000 1.000000 0.000000
vn 0.000000 1.000000 0.000000
vn 0.000000 1.000000 0.000000
vn 0.000000 1.000000 0.000000
vn 0.000000 1.000000 0.000000
vn 0.000000 1.000000 0.000000
vn 0.000000 1.000000 0.000000
vn 0.000000 1.000000 0.000000
vn 0.000000 1.000000 0.000000
vn 0.000000 1.000000 0.000000
vn 0.000000 1.000000 0.000000
vn 0.000000 1.000000 0.000000
vn 0.000000 1.000000 0.000000
vn 0.000000 1.000000 0.000000
vn 0.000000 1.000000 0.000000
vn 0.000000 1.000000 0.000000
vn 0.000000 1.000000 0.000000
vn 0.951057 0.000000 -0.309016
vn 0.809017 0.000000 -0.587785
vn 0.809017 0.000000 -0.587785
vn 0.951057 0.000000 -0.309016
vn 0.809017 0.000000 -0.587785
vn 0.587785 0.000000 -0.809017
vn 0.587785 0.000000 -0.809017
vn 0.809017 0.000000 -0.587785
vn 0.587785 0.000000 -0.809017
vn 0.309017 0.000000 -0.951057
vn 0.309017 0.000000 -0.951057
vn 0.587785 0.000000 -0.809017
vn 0.309017 0.000000 -0.951057
vn -0.000000 0.000000 -1.000000
vn -0.000000 0.000000 -1.000000
vn 0.309017 0.000000 -0.951057
vn -0.000000 0.000000 -1.000000
vn -0.309017 0.000000 -0.951057
vn -0.309017 0.000000 -0.951057
vn -0.000000 0.000000 -1.000000
vn -0.309017 0.000000 -0.951057
vn -0.587786 0.000000 -0.809017
vn -0.587786 0.000000 -0.809017
vn -0.309017 0.000000 -0.951057
vn -0.587786 0.000000 -0.809017
vn -0.809017 0.000000 -0.587785
vn -0.809017 0.000000 -0.587785
vn -0.587786 0.000000 -0.809017
vn -0.809017 0.000000 -0.587785
vn -0.951057 0.000000 -0.309017
vn -0.951057 0.000000 -0.309017
vn -0.809017 0.000000 -0.587785
vn -0.951057 0.000000 -0.309017
vn -1.000000 0.000000 0.000000
vn -1.000000 0.000000 0.000000
vn -0.951057 0.000000 -0.309017
vn -1.000000 0.000000 0.000000
vn -0.951057 0.000000 0.309017
vn -0.951057 0.000000 0.309017
vn -1.000000 0.000000 0.000000
vn -0.951057 0.000000 0.309017
vn -0.809017 0.000000 0.587785
vn -0.809017 0.000000 0.587785
vn -0.951057 0.000000 0.309017
vn -0.809017 0.000000 0.587785
vn -0.587785 0.000000 0.809017
vn -0.587785 0.000000 0.809017
vn -0.809017 0.000000 0.587785
vn -0.587785 0.000000 0.809017
vn -0.309017 0.000000 0.951057
vn -0.309017 0.000000 0.951057
vn -0.587785 0.000000 0.809017
vn -0.309017 0.000000 0.951057
vn 0.000000 0.000000 1.000000
vn 0.000000 0.000000 1.000000
vn -0.309017 0.000000 0.951057
vn 0.000000 0.000000 1.000000
vn 0.309017 0.000000 0.951057
vn 0.309017 0.000000 0.951057
vn 0.000000 0.000000 1.000000
vn 0.309017 0.000000 0.951057
vn 0.587785 0.000000 0.809017
vn 0.587785 0.000000 0.809017
vn 0.309017 0.000000 0.951057
vn 0.587785 0.000000 0.809017
vn 0.809017 0.000000 0.587785
vn 0.809017 0.000000 0.587785
vn 0.587785 0.000000 0.809017
vn 0.809017 0.000000 0.587785
vn 0.951057 0.000000 0.309017
vn 0.951057 0.000000 0.309017
vn 0.809017 0.000000 0.587785
vn 0.951057 0.000000 0.309017
vn 1.000000 0.000000 0.000001
vn 1.000000 0.000000 0.000001
vn 0.951057 0.000000 0.309017
vn 1.000000 0.000000 0.000001
vn 0.951057 0.000000 -0.309016
vn 0.951057 0.000000 -0.309016
vn 1.000000 0.000000 0.000001
vn -0.017985 -0.999796 0.009164
vn -0.017985 -0.999796 0.009164
vn -0.017985 -0.999796 0.009164
vn -0.017985 -0.999796 0.009164
vn -0.014273 -0.999796 0.014273
vn -0.014273 -0.999796 0.014273
vn -0.014273 -0.999796 0.014273
vn -0.014273 -0.999796 0.014273
vn -0.009164 -0.999796 0.017985
vn -0.009164 -0.999796 0.017985
vn -0.009164 -0.999796 0.017985
vn -0.009164 -0.999796 0.017985
vn -0.003158 -0.999796 0.019937
vn -0.003158 -0.999796 0.019937
vn -0.003158 -0.999796 0.019937
vn -0.003158 -0.999796 0.019937
vn 0.003158 -0.999796 0.019935
vn 0.003158 -0.999796 0.019935
vn 0.003158 -0.999796 0.019935
vn 0.003158 -0.999796 0.019935
vn 0.009164 -0.999796 0.017985
vn 0.009164 -0.999796 0.017985
vn 0.009164 -0.999796 0.017985
vn 0.009164 -0.999796 0.017985
vn 0.014273 -0.999796 0.014273
vn 0.014273 -0.999796 0.014273
vn 0.014273 -0.999796 0.014273
vn 0.014273 -0.999796 0.014273
vn 0.017985 -0.999796 0.009164
vn 0.017985 -0.999796 0.009164
vn 0.017985 -0.999796 0.009164
vn 0.017985 -0.999796 0.009164
vn 0.019936 -0.999796 0.003158
vn 0.019936 -0.999796 0.003158
vn 0.019936 -0.999796 0.003158
vn 0.019936 -0.999796 0.003158
vn 0.019936 -0.999796 -0.003158
vn 0.019936 -0.999796 -0.003158
vn 0.019936 -0.999796 -0.003158
vn 0.019936 -0.999796 -0.003158
vn 0.017985 -0.999796 -0.009164
vn 0.017985 -0.999796 -0.009164
vn 0.017985 -0.999796 -0.009164
vn 0.017985 -0.999796 -0.009164
vn 0.014273 -0.999796 -0.014273
vn 0.014273 -0.999796 -0.014273
vn 0.014273 -0.999796 -0.014273
vn 0.014273 -0.999796 -0.014273
vn 0.009164 -0.999796 -0.017985
vn 0.009164 -0.999796 -0.017985
vn 0.009164 -0.999796 -0.017985
vn 0.009164 -0.999796 -0.017985
vn 0.003158 -0.999796 -0.019936
vn 0.003158 -0.999796 -0.019936
vn 0.003158 -0.999796 -0.019936
vn 0.003158 -0.999796 -0.019936
vn -0.003158 -0.999796 -0.019935
vn -0.003158 -0.999796 -0.019935
vn -0.003158 -0.999796 -0.019935
vn -0.003158 -0.999796 -0.019935
vn -0.009164 -0.999796 -0.017986
vn -0.009164 -0.999796 -0.017986
vn -0.009164 -0.999796 -0.017985
vn -0.009164 -0.999796 -0.017985
vn -0.014273 -0.999796 -0.014273
vn -0.014273 -0.999796 -0.014273
vn -0.014273 -0.999796 -0.014273
vn -0.014273 -0.999796 -0.014273
vn -0.017985 -0.999796 -0.009164
vn -0.017985 -0.999796 -0.009164
vn -0.017985 -0.999796 -0.009164
vn -0.017985 -0.999796 -0.009164
vn -0.019936 -0.999796 -0.003158
vn -0.019936 -0.999796 -0.003158
vn -0.019936 -0.999796 -0.003158
vn -0.019936 -0.999796 -0.003158
vn -0.019936 -0.999796 0.003157
vn -0.019936 -0.999796 0.003157
vn -0.019936 -0.999796 0.003157
vn -0.019936 -0.999796 0.003157
s off
g Garbage_Can:pCylinder1
usemtl initialShadingGroup
f 41/3/1 42/4/2 43/6/3 44/8/4
f 42/4/5 45/10/6 46/12/7 43/6/8
f 45/10/9 47/143/10 48/15/11 46/12/12
f 47/143/13 49/144/14 50/145/15 48/15/16
f 49/17/17 51/21/18 52/23/19 50/19/20
f 51/21/21 53/25/22 54/27/23 52/23/24
f 53/25/25 55/29/26 56/31/27 54/27/28
f 55/29/29 57/33/30 58/35/31 56/31/32
f 57/33/33 59/37/34 60/39/35 58/35/36
f 59/37/37 61/41/38 62/63/39 60/39/40
f 61/41/41 63/64/42 64/67/43 62/63/44
f 63/64/45 65/69/46 66/71/47 64/67/48
f 65/69/49 67/73/50 68/75/51 66/71/52
f 67/73/53 69/77/54 70/79/55 68/75/56
f 69/77/57 71/81/58 72/83/59 70/79/60
f 71/81/61 73/85/62 74/87/63 72/83/64
f 73/85/65 75/89/66 76/91/67 74/87/68
f 75/89/69 77/93/70 78/95/71 76/91/72
f 77/93/73 79/97/74 80/99/75 78/95/76
f 79/97/77 41/3/78 44/8/79 80/99/80
f 44/42/81 43/43/82 81/44/83
f 43/43/84 46/45/85 81/44/86
f 46/45/87 48/46/88 81/44/89
f 48/46/90 50/47/91 81/44/92
f 50/47/93 52/48/94 81/44/95
f 52/48/96 54/49/97 81/44/98
f 54/49/99 56/50/100 81/44/101
f 56/50/102 58/51/103 81/44/104
f 58/51/105 60/52/106 81/44/107
f 60/52/108 62/53/109 81/44/110
f 62/53/111 64/54/112 81/44/113
f 64/54/114 66/55/115 81/44/116
f 66/55/117 68/56/118 81/44/119
f 68/56/120 70/57/121 81/44/122
f 70/57/123 72/58/124 81/44/125
f 72/58/126 74/59/127 81/44/128
f 74/59/129 76/60/130 81/44/131
f 76/60/132 78/61/133 81/44/134
f 78/61/135 80/62/136 81/44/137
f 80/62/138 44/42/139 81/44/140
f 1/101/141 2/103/142 22/105/143 21/106/144
f 2/103/145 3/107/146 23/108/147 22/105/148
f 3/107/149 4/109/150 24/110/151 23/108/152
f 4/109/153 5/146/154 25/147/155 24/110/156
f 5/111/157 6/113/158 26/114/159 25/112/160
f 6/113/161 7/115/162 27/116/163 26/114/164
f 7/115/165 8/117/166 28/118/167 27/116/168
f 8/117/169 9/119/170 29/120/171 28/118/172
f 9/119/173 10/121/174 30/122/175 29/120/176
f 10/121/177 11/123/178 31/124/179 30/122/180
f 11/123/181 12/125/182 32/126/183 31/124/184
f 12/125/185 13/127/186 33/128/187 32/126/188
f 13/127/189 14/129/190 34/130/191 33/128/192
f 14/129/193 15/131/194 35/132/195 34/130/196
f 15/131/197 16/133/198 36/134/199 35/132/200
f 16/133/201 17/135/202 37/136/203 36/134/204
f 17/135/205 18/137/206 38/138/207 37/136/208
f 18/137/209 19/139/210 39/140/211 38/138/212
f 19/139/213 20/141/214 40/142/215 39/140/216
f 20/141/217 1/101/218 21/106/219 40/142/220
f 21/66/221 22/65/222 42/2/223 41/1/224
f 22/65/225 23/68/226 45/5/227 42/2/228
f 23/68/229 24/70/230 47/7/231 45/5/232
f 24/70/233 25/72/234 49/9/235 47/7/236
f 25/72/237 26/74/238 51/11/239 49/9/240
f 26/74/241 27/76/242 53/13/243 51/11/244
f 27/76/245 28/78/246 55/14/247 53/13/248
f 28/78/249 29/80/250 57/16/251 55/14/252
f 29/80/253 30/82/254 59/18/255 57/16/256
f 30/82/257 31/84/258 61/20/259 59/18/260
f 31/84/261 32/86/262 63/22/263 61/20/264
f 32/86/265 33/88/266 65/24/267 63/22/268
f 33/88/269 34/90/270 67/26/271 65/24/272
f 34/90/273 35/92/274 69/28/275 67/26/276
f 35/92/277 36/94/278 71/30/279 69/28/280
f 36/94/281 37/96/282 73/32/283 71/30/284
f 37/96/285 38/98/286 75/34/287 73/32/288
f 38/98/289 39/100/290 77/36/291 75/34/292
f 39/100/293 40/102/294 79/38/295 77/36/296
f 40/102/297 21/104/298 41/40/299 79/38/300
