# This file uses centimeters as units for non-parametric coordinates.

mtllib Grass2.mtl
g default
v 9659.436523 28.063482 7398.496094
v -8702.031250 28.063471 7398.496094
v 9659.436523 1.605595 -730.215698
v -8702.031250 1.605595 -730.215698
v 9659.436523 -50.920532 -828.828003
v -8702.031250 -50.920532 -828.828003
v 6905.216309 28.063492 -8389.272461
v -6865.884277 28.063480 -8389.272461
v 6905.216309 17.830688 -3094.808838
v -6865.884277 17.830688 -3094.808838
v 6905.216309 -50.920506 -2920.034668
v -6865.884277 -50.920506 -2920.034668
v 9659.436523 28.063482 -634.774963
v -8702.031250 28.063482 -634.774963
v 6905.216309 28.063492 -3144.360596
v -6865.884277 28.063490 -3144.360596
vt 0.001499 0.998008
vt 0.001499 0.001992
vt 0.437263 0.001992
vt 0.437263 0.998008
vt 0.442440 0.001992
vt 0.442440 0.998008
vt 0.447790 0.998008
vt 0.447790 0.001992
vt 0.466653 0.001992
vt 0.466653 0.749004
vt 0.463965 0.749004
vt 0.463965 0.001992
vt 0.751163 0.749004
vt 0.751163 0.001992
vt 0.454485 0.749004
vt 0.454485 0.001992
vn -0.000000 1.000000 0.000000
vn -0.000000 1.000000 0.000000
vn -0.000000 1.000000 -0.000681
vn -0.000000 1.000000 -0.000681
vn 0.000000 0.896012 -0.444029
vn 0.000000 0.958283 -0.285822
vn 0.000000 0.958283 -0.285822
vn 0.000000 0.896012 -0.444029
vn -0.000000 0.994821 0.101647
vn -0.000000 0.994821 0.101647
vn 0.000000 0.958469 0.285197
vn 0.000000 0.958469 0.285197
vn 0.000000 0.930589 0.366067
vn 0.000000 0.930589 0.366067
vn 0.000000 0.958469 0.285197
vn 0.000000 0.958469 0.285197
vn -0.000000 1.000000 -0.000681
vn -0.000000 1.000000 -0.000681
vn 0.000000 0.958283 -0.285822
vn 0.000000 0.958283 -0.285822
vn -0.000000 1.000000 -0.000000
vn -0.000000 0.994821 0.101647
vn -0.000000 0.994821 0.101647
vn -0.000000 1.000000 -0.000000
s off
g polySurface557
usemtl initialShadingGroup
f 2/1/1 1/2/2 13/3/3 14/4/4
f 6/7/5 4/6/6 3/5/7 5/8/8
f 15/9/9 16/10/10 10/11/11 9/12/12
f 12/15/13 11/16/14 9/12/15 10/11/16
f 14/4/17 13/3/18 3/5/19 4/6/20
f 8/13/21 16/10/22 15/9/23 7/14/24
