# This file uses centimeters as units for non-parametric coordinates.

mtllib Garbage Can.mtl
g default
v 0.951057 0.071756 -0.309017
v 0.809018 0.071756 -0.587786
v 0.587786 0.071756 -0.809017
v 0.309017 0.071756 -0.951057
v 0.000000 0.071756 -1.000000
v -0.309017 0.071756 -0.951057
v -0.587785 0.071756 -0.809017
v -0.809017 0.071756 -0.587785
v -0.951057 0.071756 -0.309017
v -1.000000 0.071756 0.000000
v -0.951057 0.071756 0.309017
v -0.809017 0.071756 0.587785
v -0.587785 0.071756 0.809017
v -0.309017 0.071756 0.951057
v -0.000000 0.071756 1.000000
v 0.309017 0.071756 0.951057
v 0.587785 0.071756 0.809017
v 0.809017 0.071756 0.587785
v 0.951057 0.071756 0.309017
v 1.000000 0.071756 0.000000
v 0.000000 0.071756 0.000000
v 0.951057 2.608582 -0.309017
v 0.809018 2.608582 -0.587786
v 0.587786 2.608582 -0.809017
v 0.309017 2.608582 -0.951057
v 0.000000 2.608582 -1.000000
v -0.309017 2.608582 -0.951057
v -0.587785 2.608582 -0.809017
v -0.809017 2.608582 -0.587785
v -0.951057 2.608582 -0.309017
v -1.000000 2.608582 0.000000
v -0.951057 2.608582 0.309017
v -0.809017 2.608582 0.587785
v -0.587785 2.608582 0.809017
v -0.309017 2.608582 0.951057
v -0.000000 2.608582 1.000000
v 0.309017 2.608582 0.951057
v 0.587785 2.608582 0.809017
v 0.809017 2.608582 0.587785
v 0.951057 2.608582 0.309017
v 1.000000 2.608582 0.000000
v 1.085466 2.605763 -0.352689
v 0.923353 2.605763 -0.670855
v 0.923353 2.818928 -0.670855
v 1.085466 2.818928 -0.352689
v 0.670855 2.605763 -0.923353
v 0.670855 2.818928 -0.923353
v 0.352689 2.605763 -1.085466
v 0.352689 2.818928 -1.085466
v 0.000000 2.605763 -1.141326
v 0.000000 2.818928 -1.141326
v -0.352689 2.605763 -1.085466
v -0.352689 2.818928 -1.085466
v -0.670855 2.605763 -0.923352
v -0.670855 2.818928 -0.923352
v -0.923352 2.605763 -0.670855
v -0.923352 2.818928 -0.670855
v -1.085466 2.605763 -0.352689
v -1.085466 2.818928 -0.352689
v -1.141326 2.605763 0.000000
v -1.141326 2.818928 0.000000
v -1.085466 2.605763 0.352689
v -1.085466 2.818928 0.352689
v -0.923352 2.605763 0.670855
v -0.923352 2.818928 0.670855
v -0.670855 2.605763 0.923352
v -0.670855 2.818928 0.923352
v -0.352689 2.605763 1.085466
v -0.352689 2.818928 1.085466
v -0.000000 2.605763 1.141326
v -0.000000 2.818928 1.141326
v 0.352689 2.605763 1.085466
v 0.352689 2.818928 1.085466
v 0.670855 2.605763 0.923352
v 0.670855 2.818928 0.923352
v 0.923352 2.605763 0.670855
v 0.923352 2.818928 0.670855
v 1.085465 2.605763 0.352689
v 1.085465 2.818928 0.352689
v 1.141326 2.605763 0.000000
v 1.141326 2.818928 0.000000
v 0.000000 2.818928 0.000000
vt 0.648603 0.107966
vt 0.626409 0.064408
vt 0.591842 0.029841
vt 0.548284 0.007647
vt 0.500000 -0.000000
vt 0.451716 0.007647
vt 0.408159 0.029841
vt 0.373591 0.064409
vt 0.351397 0.107966
vt 0.343750 0.156250
vt 0.351397 0.204534
vt 0.373591 0.248091
vt 0.408159 0.282659
vt 0.451716 0.304853
vt 0.500000 0.312500
vt 0.548284 0.304853
vt 0.591841 0.282659
vt 0.626409 0.248091
vt 0.648603 0.204534
vt 0.656250 0.156250
vt 0.375000 0.312500
vt 0.387500 0.312500
vt 0.400000 0.312500
vt 0.412500 0.312500
vt 0.425000 0.312500
vt 0.437500 0.312500
vt 0.450000 0.312500
vt 0.462500 0.312500
vt 0.475000 0.312500
vt 0.487500 0.312500
vt 0.500000 0.312500
vt 0.512500 0.312500
vt 0.525000 0.312500
vt 0.537500 0.312500
vt 0.550000 0.312500
vt 0.562500 0.312500
vt 0.575000 0.312500
vt 0.587500 0.312500
vt 0.600000 0.312500
vt 0.612500 0.312500
vt 0.625000 0.312500
vt 0.375000 0.688440
vt 0.387500 0.688440
vt 0.400000 0.688440
vt 0.412500 0.688440
vt 0.425000 0.688440
vt 0.437500 0.688440
vt 0.450000 0.688440
vt 0.462500 0.688440
vt 0.475000 0.688440
vt 0.487500 0.688440
vt 0.500000 0.688440
vt 0.512500 0.688440
vt 0.525000 0.688440
vt 0.537500 0.688440
vt 0.550000 0.688440
vt 0.562500 0.688440
vt 0.575000 0.688440
vt 0.587500 0.688440
vt 0.600000 0.688440
vt 0.612500 0.688440
vt 0.625000 0.688440
vt 0.648603 0.795466
vt 0.626409 0.751908
vt 0.591842 0.717341
vt 0.548284 0.695147
vt 0.500000 0.687500
vt 0.451716 0.695147
vt 0.408159 0.717341
vt 0.373591 0.751909
vt 0.351397 0.795466
vt 0.343750 0.843750
vt 0.351397 0.892034
vt 0.373591 0.935591
vt 0.408159 0.970159
vt 0.451716 0.992353
vt 0.500000 1.000000
vt 0.548284 0.992353
vt 0.591841 0.970159
vt 0.626409 0.935591
vt 0.648603 0.892034
vt 0.656250 0.843750
vt 0.500000 0.150000
vt 0.500000 0.837500
vt 0.625000 0.660011
vt 0.375000 0.660011
vt 0.387500 0.660011
vt 0.400000 0.660011
vt 0.412500 0.660011
vt 0.425000 0.660011
vt 0.437500 0.660011
vt 0.450000 0.660011
vt 0.462500 0.660011
vt 0.475000 0.660011
vt 0.487500 0.660011
vt 0.500000 0.660011
vt 0.512500 0.660011
vt 0.525000 0.660011
vt 0.537500 0.660011
vt 0.550000 0.660011
vt 0.562500 0.660011
vt 0.575000 0.660011
vt 0.587500 0.660011
vt 0.600000 0.660011
vt 0.612500 0.660011
vt 0.375000 0.660011
vt 0.387500 0.660011
vt 0.400000 0.660011
vt 0.412500 0.660011
vt 0.425000 0.660011
vt 0.437500 0.660011
vt 0.450000 0.660011
vt 0.462500 0.660011
vt 0.475000 0.660011
vt 0.487500 0.660011
vt 0.500000 0.660011
vt 0.512500 0.660011
vt 0.525000 0.660011
vt 0.537500 0.660011
vt 0.550000 0.660011
vt 0.562500 0.660011
vt 0.575000 0.660011
vt 0.587500 0.660011
vt 0.600000 0.660011
vt 0.612500 0.660011
vt 0.625000 0.660011
vn 0.951057 0.000000 -0.309016
vn 0.809017 0.000000 -0.587785
vn 0.809017 0.000000 -0.587785
vn 0.951057 0.000000 -0.309016
vn 0.587785 0.000000 -0.809017
vn 0.587785 0.000000 -0.809017
vn 0.309017 0.000000 -0.951057
vn 0.309017 0.000000 -0.951057
vn -0.000000 0.000000 -1.000000
vn -0.000000 0.000000 -1.000000
vn -0.309017 0.000000 -0.951057
vn -0.309017 0.000000 -0.951057
vn -0.587785 -0.000000 -0.809017
vn -0.587785 -0.000000 -0.809017
vn -0.809017 -0.000001 -0.587785
vn -0.809017 -0.000001 -0.587785
vn -0.951057 -0.000000 -0.309017
vn -0.951057 -0.000000 -0.309017
vn -1.000000 0.000000 0.000000
vn -1.000000 0.000000 0.000000
vn -0.951057 0.000000 0.309017
vn -0.951057 0.000000 0.309017
vn -0.809017 0.000000 0.587785
vn -0.809017 0.000000 0.587785
vn -0.587785 0.000000 0.809017
vn -0.587785 0.000000 0.809017
vn -0.309017 0.000000 0.951057
vn -0.309017 0.000000 0.951057
vn 0.000000 0.000000 1.000000
vn 0.000000 0.000000 1.000000
vn 0.309017 0.000000 0.951057
vn 0.309017 0.000000 0.951057
vn 0.587785 0.000000 0.809017
vn 0.587785 0.000000 0.809017
vn 0.809017 0.000000 0.587785
vn 0.809017 0.000000 0.587785
vn 0.951057 0.000000 0.309017
vn 0.951057 0.000000 0.309017
vn 1.000000 0.000000 0.000001
vn 1.000000 0.000000 0.000001
vn 0.000000 -1.000000 0.000000
vn 0.000000 -1.000000 0.000000
vn 0.000000 -1.000000 -0.000000
vn 0.000000 -1.000000 0.000000
vn 0.000000 -1.000000 0.000000
vn 0.000000 -1.000000 0.000000
vn 0.000000 -1.000000 0.000000
vn 0.000000 -1.000000 0.000000
vn 0.000000 -1.000000 0.000000
vn 0.000000 -1.000000 0.000000
vn 0.000000 -1.000000 -0.000000
vn 0.000000 -1.000000 -0.000000
vn 0.000000 -1.000000 0.000000
vn 0.000000 -1.000000 0.000000
vn 0.000000 -1.000000 0.000000
vn 0.000000 -1.000000 0.000000
vn 0.000000 -1.000000 0.000000
vn 0.000000 -1.000000 0.000000
vn 0.000000 -1.000000 0.000000
vn 0.000000 -1.000000 0.000000
vn 0.000000 -1.000000 0.000000
vn 0.000000 1.000000 0.000000
vn 0.000000 1.000000 0.000000
vn 0.000000 1.000000 0.000000
vn 0.000000 1.000000 0.000000
vn 0.000000 1.000000 0.000000
vn 0.000000 1.000000 0.000000
vn 0.000000 1.000000 0.000000
vn 0.000000 1.000000 0.000000
vn 0.000000 1.000000 0.000000
vn 0.000000 1.000000 -0.000000
vn 0.000000 1.000000 0.000000
vn 0.000000 1.000000 0.000000
vn 0.000000 1.000000 -0.000000
vn 0.000000 1.000000 0.000000
vn 0.000000 1.000000 -0.000000
vn 0.000000 1.000000 0.000000
vn 0.000000 1.000000 -0.000000
vn 0.000000 1.000000 0.000000
vn 0.000000 1.000000 -0.000000
vn 0.000000 1.000000 0.000000
vn 0.000000 1.000000 -0.000000
vn 0.951057 0.000000 -0.309016
vn 0.809017 0.000000 -0.587785
vn 0.809017 0.000000 -0.587785
vn 0.951057 0.000000 -0.309016
vn 0.587785 0.000000 -0.809017
vn 0.587785 0.000000 -0.809017
vn 0.309017 0.000000 -0.951057
vn 0.309017 0.000000 -0.951057
vn -0.000000 0.000000 -1.000000
vn -0.000000 0.000000 -1.000000
vn -0.309017 0.000000 -0.951057
vn -0.309017 0.000000 -0.951057
vn -0.587786 0.000000 -0.809017
vn -0.587786 0.000000 -0.809017
vn -0.809017 0.000000 -0.587785
vn -0.809017 0.000000 -0.587785
vn -0.951057 0.000000 -0.309017
vn -0.951057 0.000000 -0.309017
vn -1.000000 0.000000 0.000000
vn -1.000000 0.000000 0.000000
vn -0.951057 0.000000 0.309017
vn -0.951057 0.000000 0.309017
vn -0.809017 0.000000 0.587785
vn -0.809017 0.000000 0.587785
vn -0.587785 0.000000 0.809017
vn -0.587785 0.000000 0.809017
vn -0.309017 0.000000 0.951057
vn -0.309017 0.000000 0.951057
vn 0.000000 0.000000 1.000000
vn 0.000000 0.000000 1.000000
vn 0.309017 0.000000 0.951057
vn 0.309017 0.000000 0.951057
vn 0.587785 0.000000 0.809017
vn 0.587785 0.000000 0.809017
vn 0.809017 0.000000 0.587785
vn 0.809017 0.000000 0.587785
vn 0.951057 0.000000 0.309017
vn 0.951057 0.000000 0.309017
vn 1.000000 0.000000 0.000001
vn 1.000000 0.000000 0.000001
vn -0.017985 -0.999796 0.009164
vn -0.017985 -0.999796 0.009164
vn -0.017985 -0.999796 0.009164
vn -0.017985 -0.999796 0.009164
vn -0.014273 -0.999796 0.014273
vn -0.014273 -0.999796 0.014273
vn -0.014273 -0.999796 0.014273
vn -0.014273 -0.999796 0.014273
vn -0.009164 -0.999796 0.017985
vn -0.009164 -0.999796 0.017985
vn -0.009164 -0.999796 0.017985
vn -0.009164 -0.999796 0.017985
vn -0.003158 -0.999796 0.019937
vn -0.003158 -0.999796 0.019937
vn -0.003158 -0.999796 0.019937
vn -0.003158 -0.999796 0.019937
vn 0.003158 -0.999796 0.019935
vn 0.003158 -0.999796 0.019935
vn 0.003158 -0.999796 0.019935
vn 0.003158 -0.999796 0.019935
vn 0.009164 -0.999796 0.017985
vn 0.009164 -0.999796 0.017985
vn 0.009164 -0.999796 0.017985
vn 0.009164 -0.999796 0.017985
vn 0.014273 -0.999796 0.014273
vn 0.014273 -0.999796 0.014273
vn 0.014273 -0.999796 0.014273
vn 0.014273 -0.999796 0.014273
vn 0.017985 -0.999796 0.009164
vn 0.017985 -0.999796 0.009164
vn 0.017985 -0.999796 0.009164
vn 0.017985 -0.999796 0.009164
vn 0.019936 -0.999796 0.003158
vn 0.019936 -0.999796 0.003158
vn 0.019936 -0.999796 0.003158
vn 0.019936 -0.999796 0.003158
vn 0.019936 -0.999796 -0.003158
vn 0.019936 -0.999796 -0.003158
vn 0.019936 -0.999796 -0.003158
vn 0.019936 -0.999796 -0.003158
vn 0.017985 -0.999796 -0.009164
vn 0.017985 -0.999796 -0.009164
vn 0.017985 -0.999796 -0.009164
vn 0.017985 -0.999796 -0.009164
vn 0.014273 -0.999796 -0.014273
vn 0.014273 -0.999796 -0.014273
vn 0.014273 -0.999796 -0.014273
vn 0.014273 -0.999796 -0.014273
vn 0.009164 -0.999796 -0.017985
vn 0.009164 -0.999796 -0.017985
vn 0.009164 -0.999796 -0.017985
vn 0.009164 -0.999796 -0.017985
vn 0.003158 -0.999796 -0.019936
vn 0.003158 -0.999796 -0.019936
vn 0.003158 -0.999796 -0.019936
vn 0.003158 -0.999796 -0.019936
vn -0.003158 -0.999796 -0.019935
vn -0.003158 -0.999796 -0.019935
vn -0.003158 -0.999796 -0.019935
vn -0.003158 -0.999796 -0.019935
vn -0.009164 -0.999796 -0.017986
vn -0.009164 -0.999796 -0.017986
vn -0.009164 -0.999796 -0.017985
vn -0.009164 -0.999796 -0.017985
vn -0.014273 -0.999796 -0.014273
vn -0.014273 -0.999796 -0.014273
vn -0.014273 -0.999796 -0.014273
vn -0.014273 -0.999796 -0.014273
vn -0.017985 -0.999796 -0.009164
vn -0.017985 -0.999796 -0.009164
vn -0.017985 -0.999796 -0.009164
vn -0.017985 -0.999796 -0.009164
vn -0.019936 -0.999796 -0.003158
vn -0.019936 -0.999796 -0.003158
vn -0.019936 -0.999796 -0.003158
vn -0.019936 -0.999796 -0.003158
vn -0.019936 -0.999796 0.003157
vn -0.019936 -0.999796 0.003157
vn -0.019936 -0.999796 0.003157
vn -0.019936 -0.999796 0.003157
s 1
g pCylinder1
usemtl initialShadingGroup
f 42/106/1 43/107/2 44/43/3 45/42/4
f 43/107/2 46/108/5 47/44/6 44/43/3
f 46/108/5 48/109/7 49/45/8 47/44/6
f 48/109/7 50/110/9 51/46/10 49/45/8
f 50/110/9 52/111/11 53/47/12 51/46/10
f 52/111/11 54/112/13 55/48/14 53/47/12
f 54/112/13 56/113/15 57/49/16 55/48/14
f 56/113/15 58/114/17 59/50/18 57/49/16
f 58/114/17 60/115/19 61/51/20 59/50/18
f 60/115/19 62/116/21 63/52/22 61/51/20
f 62/116/21 64/117/23 65/53/24 63/52/22
f 64/117/23 66/118/25 67/54/26 65/53/24
f 66/118/25 68/119/27 69/55/28 67/54/26
f 68/119/27 70/120/29 71/56/30 69/55/28
f 70/120/29 72/121/31 73/57/32 71/56/30
f 72/121/31 74/122/33 75/58/34 73/57/32
f 74/122/33 76/123/35 77/59/36 75/58/34
f 76/123/35 78/124/37 79/60/38 77/59/36
f 78/124/37 80/125/39 81/61/40 79/60/38
f 80/125/39 42/126/1 45/62/4 81/61/40
s 2
f 2/2/41 1/1/42 21/83/43
f 3/3/44 2/2/41 21/83/43
f 4/4/45 3/3/44 21/83/43
f 5/5/46 4/4/45 21/83/43
f 6/6/47 5/5/46 21/83/43
f 7/7/48 6/6/47 21/83/43
f 8/8/49 7/7/48 21/83/43
f 9/9/50 8/8/49 21/83/43
f 10/10/51 9/9/50 21/83/43
f 11/11/52 10/10/51 21/83/43
f 12/12/53 11/11/52 21/83/43
f 13/13/54 12/12/53 21/83/43
f 14/14/55 13/13/54 21/83/43
f 15/15/56 14/14/55 21/83/43
f 16/16/57 15/15/56 21/83/43
f 17/17/58 16/16/57 21/83/43
f 18/18/59 17/17/58 21/83/43
f 19/19/60 18/18/59 21/83/43
f 20/20/61 19/19/60 21/83/43
f 1/1/42 20/20/61 21/83/43
s 3
f 45/81/62 44/80/63 82/84/64
f 44/80/63 47/79/65 82/84/64
f 47/79/65 49/78/66 82/84/64
f 49/78/66 51/77/67 82/84/64
f 51/77/67 53/76/68 82/84/64
f 53/76/68 55/75/69 82/84/64
f 55/75/69 57/74/70 82/84/64
f 57/74/70 59/73/71 82/84/64
f 59/73/71 61/72/72 82/84/64
f 61/72/72 63/71/73 82/84/64
f 63/71/73 65/70/74 82/84/64
f 65/70/74 67/69/75 82/84/64
f 67/69/75 69/68/76 82/84/64
f 69/68/76 71/67/77 82/84/64
f 71/67/77 73/66/78 82/84/64
f 73/66/78 75/65/79 82/84/64
f 75/65/79 77/64/80 82/84/64
f 77/64/80 79/63/81 82/84/64
f 79/63/81 81/82/82 82/84/64
f 81/82/82 45/81/62 82/84/64
s 4
f 1/21/83 2/22/84 23/87/85 22/86/86
f 2/22/84 3/23/87 24/88/88 23/87/85
f 3/23/87 4/24/89 25/89/90 24/88/88
f 4/24/89 5/25/91 26/90/92 25/89/90
f 5/25/91 6/26/93 27/91/94 26/90/92
f 6/26/93 7/27/95 28/92/96 27/91/94
f 7/27/95 8/28/97 29/93/98 28/92/96
f 8/28/97 9/29/99 30/94/100 29/93/98
f 9/29/99 10/30/101 31/95/102 30/94/100
f 10/30/101 11/31/103 32/96/104 31/95/102
f 11/31/103 12/32/105 33/97/106 32/96/104
f 12/32/105 13/33/107 34/98/108 33/97/106
f 13/33/107 14/34/109 35/99/110 34/98/108
f 14/34/109 15/35/111 36/100/112 35/99/110
f 15/35/111 16/36/113 37/101/114 36/100/112
f 16/36/113 17/37/115 38/102/116 37/101/114
f 17/37/115 18/38/117 39/103/118 38/102/116
f 18/38/117 19/39/119 40/104/120 39/103/118
f 19/39/119 20/40/121 41/105/122 40/104/120
f 20/40/121 1/41/83 22/85/86 41/105/122
s off
f 22/86/123 23/87/124 43/107/125 42/106/126
f 23/87/127 24/88/128 46/108/129 43/107/130
f 24/88/131 25/89/132 48/109/133 46/108/134
f 25/89/135 26/90/136 50/110/137 48/109/138
f 26/90/139 27/91/140 52/111/141 50/110/142
f 27/91/143 28/92/144 54/112/145 52/111/146
f 28/92/147 29/93/148 56/113/149 54/112/150
f 29/93/151 30/94/152 58/114/153 56/113/154
f 30/94/155 31/95/156 60/115/157 58/114/158
f 31/95/159 32/96/160 62/116/161 60/115/162
f 32/96/163 33/97/164 64/117/165 62/116/166
f 33/97/167 34/98/168 66/118/169 64/117/170
f 34/98/171 35/99/172 68/119/173 66/118/174
f 35/99/175 36/100/176 70/120/177 68/119/178
f 36/100/179 37/101/180 72/121/181 70/120/182
f 37/101/183 38/102/184 74/122/185 72/121/186
f 38/102/187 39/103/188 76/123/189 74/122/190
f 39/103/191 40/104/192 78/124/193 76/123/194
f 40/104/195 41/105/196 80/125/197 78/124/198
f 41/105/199 22/85/200 42/126/201 80/125/202
