# This file uses centimeters as units for non-parametric coordinates.

mtllib Wall1.mtl
g default
v -0.500000 -0.063703 -2.436713
v 0.500000 -0.063703 -2.436713
v -0.500000 4.394320 -2.436713
v 0.500000 4.394320 -2.436713
v -0.500000 4.394320 -3.436713
v 0.500000 4.394320 -3.436713
v -0.500000 -0.063703 -3.436713
v 0.500000 -0.063703 -3.436713
v -0.500000 -0.065851 3.436712
v 0.500000 -0.065851 3.436712
v -0.500000 4.544473 3.436712
v 0.500000 4.544473 3.436712
v -0.500000 4.544473 2.436712
v 0.500000 4.544473 2.436712
v -0.500000 -0.065851 2.436712
v 0.500000 -0.065851 2.436712
v 0.154625 -0.065851 3.436712
v 0.154625 -0.065851 2.436712
v 0.154625 4.544473 2.436712
v 0.154625 4.544473 3.436712
v -0.148172 -0.065851 3.436712
v -0.148172 -0.065851 2.436712
v -0.148172 4.544473 2.436712
v -0.148172 4.544473 3.436712
v -0.500000 3.573312 3.436712
v -0.148172 3.573312 3.436712
v 0.154625 3.573312 3.436712
v 0.500000 3.573312 3.436712
v 0.500000 3.573312 2.436712
v 0.154625 3.573312 2.436712
v -0.148172 3.573312 2.436712
v -0.500000 3.573312 2.436712
v -0.148172 -0.065851 -2.432478
v -0.148172 3.573312 -2.432478
v 0.154625 3.573312 -2.432478
v 0.154625 -0.065851 -2.432478
vt 0.375000 0.000000
vt 0.625000 0.000000
vt 0.375000 0.250000
vt 0.625000 0.250000
vt 0.375000 0.500000
vt 0.625000 0.500000
vt 0.375000 0.750000
vt 0.625000 0.750000
vt 0.375000 1.000000
vt 0.625000 1.000000
vt 0.875000 0.000000
vt 0.875000 0.250000
vt 0.125000 0.000000
vt 0.125000 0.250000
vt 0.538656 0.250000
vt 0.538656 0.197338
vt 0.625000 0.197338
vt 0.625000 0.250000
vt 0.538656 0.500000
vt 0.625000 0.500000
vt 0.625000 0.552662
vt 0.538656 0.552662
vt 0.538656 1.000000
vt 0.538656 0.750000
vt 0.625000 0.750000
vt 0.625000 1.000000
vt 0.875000 0.197338
vt 0.875000 0.250000
vt 0.125000 0.197338
vt 0.375000 0.197338
vt 0.375000 0.250000
vt 0.125000 0.250000
vt 0.462957 1.000000
vt 0.462957 0.750000
vt 0.462957 0.552662
vt 0.462957 0.500000
vt 0.462957 0.250000
vt 0.462957 0.197338
vt 0.375000 0.750000
vt 0.375000 1.000000
vt 0.375000 0.500000
vt 0.375000 0.552662
vt 0.375000 0.000000
vt 0.462957 0.000000
vt 0.538656 0.000000
vt 0.625000 0.000000
vt 0.875000 0.000000
vt 0.462957 0.750000
vt 0.462957 0.552662
vt 0.538656 0.552662
vt 0.538656 0.750000
vt 0.125000 0.000000
vn 0.000000 0.000000 1.000000
vn 0.000000 0.000000 1.000000
vn 0.000000 0.000000 1.000000
vn 0.000000 0.000000 1.000000
vn 0.000000 1.000000 0.000000
vn 0.000000 1.000000 0.000000
vn 0.000000 1.000000 0.000000
vn 0.000000 1.000000 0.000000
vn 0.000000 0.000000 -1.000000
vn 0.000000 0.000000 -1.000000
vn 0.000000 0.000000 -1.000000
vn 0.000000 0.000000 -1.000000
vn 0.000000 -1.000000 0.000000
vn 0.000000 -1.000000 0.000000
vn 0.000000 -1.000000 0.000000
vn 0.000000 -1.000000 0.000000
vn 1.000000 0.000000 0.000000
vn 1.000000 0.000000 0.000000
vn 1.000000 0.000000 0.000000
vn 1.000000 0.000000 0.000000
vn -1.000000 0.000000 0.000000
vn -1.000000 0.000000 0.000000
vn -1.000000 0.000000 0.000000
vn -1.000000 0.000000 0.000000
vn 0.000000 0.000000 1.000000
vn 0.000000 0.000000 1.000000
vn 0.000000 0.000000 1.000000
vn 0.000000 0.000000 1.000000
vn 0.000000 1.000000 0.000000
vn 0.000000 1.000000 0.000000
vn 0.000000 1.000000 0.000000
vn 0.000000 1.000000 0.000000
vn 0.000000 0.000000 -1.000000
vn 0.000000 0.000000 -1.000000
vn 0.000000 0.000000 -1.000000
vn 0.000000 0.000000 -1.000000
vn 0.000000 -1.000000 0.000000
vn 0.000000 -1.000000 0.000000
vn 0.000000 -1.000000 0.000000
vn 0.000000 -1.000000 0.000000
vn 1.000000 0.000000 0.000000
vn 1.000000 0.000000 0.000000
vn 1.000000 0.000000 0.000000
vn 1.000000 0.000000 0.000000
vn -1.000000 0.000000 0.000000
vn -1.000000 0.000000 0.000000
vn -1.000000 0.000000 0.000000
vn -1.000000 0.000000 0.000000
vn 0.000000 -1.000000 0.000000
vn 0.000000 -1.000000 0.000000
vn 0.000000 0.000000 -1.000000
vn 0.000000 0.000000 -1.000000
vn 0.000000 1.000000 0.000000
vn 0.000000 1.000000 0.000000
vn 0.000000 0.000000 1.000000
vn 0.000000 0.000000 1.000000
vn 0.000000 -1.000000 0.000000
vn 0.000000 -1.000000 0.000000
vn 0.000000 0.000000 -1.000000
vn 0.000000 0.000000 -1.000000
vn 0.000000 1.000000 0.000000
vn 0.000000 1.000000 0.000000
vn 0.000000 0.000000 1.000000
vn 0.000000 0.000000 1.000000
vn 0.000000 0.000000 1.000000
vn 0.000000 0.000000 1.000000
vn 0.000000 0.000000 1.000000
vn 0.000000 0.000000 1.000000
vn 1.000000 0.000000 0.000000
vn 1.000000 0.000000 0.000000
vn 0.000000 0.000000 -1.000000
vn 0.000000 0.000000 -1.000000
vn 0.000000 0.000000 -1.000000
vn 0.000000 0.000000 -1.000000
vn 0.000000 0.000000 -1.000000
vn 0.000000 0.000000 -1.000000
vn 0.000000 0.000000 -1.000000
vn 0.000000 0.000000 -1.000000
vn -1.000000 0.000000 0.000000
vn -1.000000 0.000000 0.000000
vn -1.000000 0.000000 0.000000
vn -1.000000 0.000000 0.000000
vn -1.000000 0.000000 0.000000
vn -1.000000 0.000000 0.000000
vn 0.000000 1.000000 0.000000
vn 0.000000 1.000000 0.000000
vn 0.000000 1.000000 0.000000
vn 0.000000 1.000000 0.000000
vn 1.000000 0.000000 0.000000
vn 1.000000 0.000000 0.000000
vn 1.000000 0.000000 0.000000
vn 1.000000 0.000000 0.000000
vn 0.000000 -1.000000 0.000000
vn 0.000000 -1.000000 0.000000
s off
g pCube3
usemtl initialShadingGroup
f 1/1/1 2/2/2 4/4/3 3/3/4
f 3/3/5 4/4/6 6/6/7 5/5/8
f 5/5/9 6/6/10 8/8/11 7/7/12
f 7/7/13 8/8/14 2/10/15 1/9/16
f 2/2/17 8/11/18 6/12/19 4/4/20
f 7/13/21 1/1/22 3/3/23 5/14/24
s 1
f 20/15/25 27/16/26 28/17/27 12/18/28
s 2
f 19/19/29 20/15/30 12/18/31 14/20/32
s 3
f 29/21/33 30/22/34 19/19/35 14/20/36
s 4
f 17/23/37 18/24/38 16/25/39 10/26/40
s 5
f 28/17/41 29/27/42 14/28/43 12/18/44
s 6
f 32/29/45 25/30/46 11/31/47 13/32/48
s 4
f 21/33/49 22/34/50 18/24/38 17/23/37
s 3
f 30/22/34 31/35/51 23/36/52 19/19/35
s 2
f 23/36/53 24/37/54 20/15/30 19/19/29
s 1
f 24/37/55 26/38/56 27/16/26 20/15/25
s 4
f 15/39/57 22/34/50 21/33/49 9/40/58
s 3
f 13/41/59 23/36/52 31/35/51 32/42/60
s 2
f 11/31/61 24/37/54 23/36/53 13/41/62
s 1
f 25/30/63 26/38/56 24/37/55 11/31/64
f 9/43/65 21/44/66 26/38/56 25/30/63
f 27/16/26 26/38/56 21/44/66 17/45/67
f 28/17/27 27/16/26 17/45/67 10/46/68
s 5
f 10/46/69 16/47/70 29/27/42 28/17/41
s 3
f 18/24/71 30/22/34 29/21/33 16/25/72
s off
f 33/48/73 34/49/74 35/50/75 36/51/76
s 3
f 32/42/60 31/35/51 22/34/77 15/39/78
s 6
f 15/52/79 9/43/80 25/30/46 32/29/45
s off
f 22/34/81 31/35/82 34/49/83 33/48/84
f 31/35/85 30/22/86 35/50/87 34/49/88
f 30/22/89 18/24/90 36/51/91 35/50/92
s 4
f 18/24/38 22/34/50 33/48/93 36/51/94
